<svg xmlns="http://www.w3.org/2000/svg" xmlns:xlink="http://www.w3.org/1999/xlink" xmlns:inkscape="http://www.inkscape.org/namespaces/inkscape" version="1.1" width="1080" height="1080" viewBox="0 0 1080 1080">
<defs>
<clipPath id="clip_1">
<path transform="matrix(1,0,0,-1,0,1080)" d="M0 1080H1080V0H0Z"/>
</clipPath>
</defs>
<g>
<g inkscape:groupmode="layer" inkscape:label="Camada 1">
<path transform="matrix(1,0,0,-1,0,1080)" d="M0 0H1080V1080H0Z" fill="#111427"/>
<g clip-path="url(#clip_1)">
<path transform="matrix(1,0,0,-1,0,1080)" stroke-width="11" stroke-linecap="butt" stroke-miterlimit="10" stroke-linejoin="miter" fill="none" stroke="#e30613" d="M1136.199-1901.709H-144.37207V1184.0051H1136.199Z"/>
<path transform="matrix(1,0,0,-1,934.0895,479.75459)" d="M0 0C-8.876-4.727-19.119-7.511-28.205-11.818L-46.852-48.848-48.375-50.109-57.515-53.996C-57.988-54.049-58.67-53.734-58.67-53.208L-54.049-21.851-54.206-21.588C-62.399-24.95-70.646-28.311-79.208-30.517-85.826-32.198-93.022-33.511-99.85-34.247-101.584-34.457-103.737-35.035-104.998-33.511L-105.365-32.933-164.823-52.473C-274.655-91.447-501.458-195.814-559.131-298.921-578.67-333.955-567.535-347.98-538.068-369.515-441.947-439.478-293.406-443.523-186.57-396.355-177.745-392.469-161.515-386.586-159.939-376.816L-159.992-170.182C-164.404-136.513-198.65-135.042-226.069-134.832L-223.074-122.804H-15.179V-134.885C-47.588-135.62-80.154-136.303-83.567-175.96-89.188-241.353-79.313-314.784-83.357-381.018-83.095-383.592-83.935-385.062-85.511-386.953-87.507-389.317-109.515-401.713-114.242-404.392-258.897-485.175-449.563-500.776-603.672-437.062-654.937-415.895-697.115-387.952-666.335-326.286-640.597-274.759-569.268-222.812-521.208-192.295-396.46-113.087-251.228-62.243-106.678-30.99L-119.39-11.976C-119.442-11.556-119.285-11.031-118.864-10.768-116.711-10.033-114.453-8.824-112.246-8.141-111.248-7.826-111.09-7.931-110.198-8.404-104.63-11.083-99.22-15.022-93.652-17.806-93.285-18.016-92.759-18.331-92.392-18.279L-13.342 14.76C-10.032 15.968-6.513 16.808-2.941 17.018 .368 17.228 4.727 16.86 7.826 15.6 18.384 11.293 4.57 2.469 0 0" fill="#dec07f"/>
<path transform="matrix(1,0,0,-1,811.4741,182.74158)" d="M0 0C-102.544 56.082-228.199 70.992-342.866 49.544-575.521 6.028-718.011-202.22-666.904-435.918-652.165-503.314-619.605-567.315-571.507-616.667-563.349-597.696-549.555-582.031-535.621-567.164-560.132-526.785-579.677-486.001-590.19-439.546-637.484-230.551-515.371-6.083-296.718 29.508-177.223 48.958-29.703 8.747 9.287-118.251L17.028-118.53Z" fill="#dec07f"/>
<path transform="matrix(1,0,0,-1,352.2471,492.8252)" d="M0 0-102.958 41.955C-121.242-48.875-103.661-147.309-50.319-223.334L23.087-170.767C5.16-116.222-8.425-57.519 0 0M217.633 130.352C171.072 142.021 125.136 158.055 83.228 181.548 45.453 131.483 20.146 69.594 11.972 7.312 70.217-12.309 130.927-25.485 191.95-33.878 196.337-30.696 193.669-5.878 194.24 1.193 197.751 44.669 205.945 88.425 217.633 130.352M2.319 11.693C7.584 74.662 34.773 137.044 72.494 187.41 51.654 201.324 32.462 217.117 14.868 234.868 3.383 236.836-44.897 172.243-52.464 160.442-72.763 128.784-87.14 94.967-97.929 58.927L-96.024 54.776C-86.173 46.903-1.382 7.707 2.319 11.693M304.2 314.219C262.897 315.045 221.351 297.337 186.483 276.552 159.633 260.547 123.012 232.107 103.015 208.288 99.858 204.528 90.206 193.959 91.385 190.016 93.971 181.362 203.21 138.206 219.938 137.353 236.18 200.265 264.715 262.417 304.2 314.219M280.788 318.874C188.606 327.877 91.659 301.025 21.094 240.929 30.65 234.094 71.224 196.35 80.498 197.687 120.155 250.703 178.411 287.62 241.028 308.414ZM191.877-40.676 9.364-4.612C3.066-59.467 10.992-114.694 25.761-167.515 60.653-151.641 92.512-129.293 127.917-114.379 130.061-113.476 133.88-109.317 135.704-112.813 67.637-150.342 1.004-191.478-56.134-244.318-134.115-130.19-150.078 6.74-87.01 131.963-78.181 149.494-14.144 269.395 128.498 312.881 145.953 318.202 192.038 330.747 253.087 327.444 271.47 326.45 288.549 325.863 310.644 319.799 332.811 313.715 370.781 299.4 404.874 265.284 430.778 239.362 444.437 212.021 451.562 194.084 439.279 217.944 411.827 262.364 358.962 292.371 341.047 302.54 323.823 309.004 308.9 313.201 270.764 259.475 247.118 197.356 226.975 135.068L296.344 121.406 360.35 114.115C314.708 113.794 269.615 121.56 224.68 128.023 212.556 74.3 200.173 20.384 196.564-34.846L257.387-41.816 196.546-39.501 196.272-54.363 191.877-74.423Z" fill="#ffffff"/>
<path transform="matrix(1,0,0,-1,886.4102,472.93348)" d="M0 0-20.239-8.415C-25.824-3.891-31.248 .826-36.779 5.415-38.389 6.751-40.592 8.228-42.032 9.632-42.627 10.212-42.739 10.662-42.064 11.283L-34.472 14.318C-33.859 14.494-33.287 14.577-32.672 14.371-24.812 11.037-16.98 7.631-9.109 4.324-6.498 3.227-2.766 2.068-.407 .782-.021 .572 .098 .521 0 0" fill="#dec07f"/>
</g>
</g>
</g>
</svg>
